# xmcd
# 
# Track frame offsets:
#     150
#     18783
#     36186
#     52768
#     68558
#     82498
#     99299
#     114352
#     126113
#     140604
#     159832
#     182684
#     197912
# 
# Disc length: 2812
# 
# Revision: 0
# Processed by: cddbd v1.5.2PL0 Copyright (c) Steve Scherf et al.
# Submitted via: fre:ac v1.0.31
# 
DISCID=a30afa0d
DTITLE=Celtic Thunder - Legacy Volume Two
DYEAR=2016
DGENRE=Celtic
TTITLE0=Now We Are Free
TTITLE1=Isle Of Innisfree
TTITLE2=Home
TTITLE3=Song For The Mira
TTITLE4=Hallelujah
TTITLE5=Remember Me
TTITLE6=Lauren and I
TTITLE7=Breaking Up Is Hard To Do
TTITLE8=Life With You
TTITLE9=Streets Of New York
TTITLE10=Seven Drunken Nights
TTITLE11=Take Me Home
TTITLE12=Mo Ghile Mear
EXTD=
EXTT0=
EXTT1=
EXTT2=
EXTT3=
EXTT4=
EXTT5=
EXTT6=
EXTT7=
EXTT8=
EXTT9=
EXTT10=
EXTT11=
EXTT12=
PLAYORDER=
